<svg width="512" height="512" viewBox="0 0 512 512" fill="none" xmlns="http://www.w3.org/2000/svg">
  <rect width="512" height="512" rx="128" fill="#4F46E5"/>
  <path d="M256 120C180.89 120 120 180.89 120 256C120 331.11 180.89 392 256 392C288.5 392 318.5 381 342.5 362.5L400 420L420 400L362.5 342.5C381 318.5 392 288.5 392 256C392 180.89 331.11 120 256 120ZM256 352C203.04 352 160 308.96 160 256C160 203.04 203.04 160 256 160C308.96 160 352 203.04 352 256C352 308.96 308.96 352 256 352Z" fill="white"/>
  <path d="M256 200V256L300 300" stroke="white" stroke-width="24" stroke-linecap="round" stroke-linejoin="round"/>
  <text x="50%" y="85%" text-anchor="middle" fill="white" font-family="Arial, sans-serif" font-weight="900" font-size="64">QLOS</text>
</svg>
